# xmcd
#
# Track frame offsets:
#	150
#	13490
#	25982
#	38995
#	56490
#	71077
#	87045
#	102657
#	117007
#	132807
#	146600
#	163747
#	183282
#	198940
#	212982
#	227990
#
# Disc length: 3234 seconds
#
# Revision: 2
# Processed by: cddbd v1.5.1PL2 Copyright (c) Steve Scherf et al.
# Submitted via: audiograbber 1.83.01
#
DISCID=e90ca010
DTITLE=Truck Stop - Die Gold-Parade
DYEAR=1900
DGENRE=Country
TTITLE0=Take it easy, altes Haus
TTITLE1=Der wilde, wilde Westen
TTITLE2=Die Frau mit dem Gurt
TTITLE3=Wenn es Nacht wird in Old Tuscon
TTITLE4=Louisiana Ladies
TTITLE5=Ich möcht' so gern Dave Dudley hör'n
TTITLE6=Jeden Tag in einer ander'n Stadt
TTITLE7=Du bist immer auf Achse
TTITLE8=Frankie wollte Cowboy werden
TTITLE9=Ein kaltes Bier, ein warmes Herz
TTITLE10=Old Texas Town, die Western-Stadt
TTITLE11=Nein danke, ich rauch' nicht mehr
TTITLE12=Ich steh' auf Jeans und Country-Music
TTITLE13=Das gibt's doch nur in Dallas
TTITLE14=Easy Rider
TTITLE15=Keiner meiner Freunde hat mehr Zeit
EXTD=16 echt goldene Super-Hits
EXTT0=
EXTT1=
EXTT2=
EXTT3=
EXTT4=
EXTT5=
EXTT6=
EXTT7=
EXTT8=
EXTT9=
EXTT10=
EXTT11=
EXTT12=
EXTT13=
EXTT14=
EXTT15=
PLAYORDER=
